<svg width="1360" height="840" viewBox="0 0 680 420" xmlns="http://www.w3.org/2000/svg">
  <defs>
    <clipPath id="phone-clip"><rect x="390" y="28" width="188" height="364" rx="28"/></clipPath>
    <clipPath id="card-clip"><rect x="0" y="0" width="680" height="420" rx="16"/></clipPath>
    <linearGradient id="bg-grad" x1="0" y1="0" x2="1" y2="1">
      <stop offset="0%" stop-color="#0a0f0b"/>
      <stop offset="100%" stop-color="#080808"/>
    </linearGradient>
    <linearGradient id="green-fade" x1="0" y1="0" x2="0" y2="1">
      <stop offset="0%" stop-color="#22c55e" stop-opacity="0.18"/>
      <stop offset="100%" stop-color="#22c55e" stop-opacity="0"/>
    </linearGradient>
    <linearGradient id="bar-green" x1="0" y1="0" x2="1" y2="0">
      <stop offset="0%" stop-color="#22c55e"/>
      <stop offset="100%" stop-color="#86efac"/>
    </linearGradient>
    <linearGradient id="screen-bg" x1="0" y1="0" x2="0" y2="1">
      <stop offset="0%" stop-color="#0d1a0f"/>
      <stop offset="100%" stop-color="#080c08"/>
    </linearGradient>
  </defs>

  <g clip-path="url(#card-clip)">
    <rect width="680" height="420" fill="url(#bg-grad)"/>
    <line x1="0" y1="80" x2="680" y2="80" stroke="#ffffff" stroke-opacity="0.025" stroke-width="1"/>
    <line x1="0" y1="160" x2="680" y2="160" stroke="#ffffff" stroke-opacity="0.025" stroke-width="1"/>
    <line x1="0" y1="240" x2="680" y2="240" stroke="#ffffff" stroke-opacity="0.025" stroke-width="1"/>
    <line x1="0" y1="320" x2="680" y2="320" stroke="#ffffff" stroke-opacity="0.025" stroke-width="1"/>
    <line x1="136" y1="0" x2="136" y2="420" stroke="#ffffff" stroke-opacity="0.025" stroke-width="1"/>
    <line x1="272" y1="0" x2="272" y2="420" stroke="#ffffff" stroke-opacity="0.025" stroke-width="1"/>
    <line x1="408" y1="0" x2="408" y2="420" stroke="#ffffff" stroke-opacity="0.025" stroke-width="1"/>
    <line x1="544" y1="0" x2="544" y2="420" stroke="#ffffff" stroke-opacity="0.025" stroke-width="1"/>
    <ellipse cx="560" cy="60" rx="180" ry="100" fill="#22c55e" fill-opacity="0.07"/>

    <text x="48" y="90" font-family="'Syne', sans-serif" font-size="42" font-weight="800" fill="#f0efe8" letter-spacing="-2">VOLTRO</text>
    <circle cx="48" cy="108" r="3" fill="#22c55e"/>
    <line x1="55" y1="108" x2="200" y2="108" stroke="#22c55e" stroke-opacity="0.4" stroke-width="1"/>
    <text x="48" y="138" font-family="'DM Sans', sans-serif" font-size="12" font-weight="400" fill="#f0efe8" fill-opacity="0.45" letter-spacing="1.5">EV TRIP INTELLIGENCE</text>
    <text x="48" y="188" font-family="'Syne', sans-serif" font-size="28" font-weight="800" fill="#f0efe8" letter-spacing="-0.5">No more</text>
    <text x="48" y="222" font-family="'Syne', sans-serif" font-size="28" font-weight="800" fill="#22c55e" letter-spacing="-0.5">range anxiety.</text>
    <text x="48" y="258" font-family="'DM Sans', sans-serif" font-size="13" font-weight="300" fill="#f0efe8" fill-opacity="0.5">Predictive planning.</text>
    <text x="48" y="276" font-family="'DM Sans', sans-serif" font-size="13" font-weight="300" fill="#f0efe8" fill-opacity="0.5">Real-time confidence.</text>

    <rect x="48" y="306" width="80" height="56" rx="10" fill="#111111" stroke="#22c55e" stroke-opacity="0.25" stroke-width="1"/>
    <text x="88" y="326" font-family="'Syne', sans-serif" font-size="11" font-weight="400" fill="#22c55e" fill-opacity="0.7" text-anchor="middle" letter-spacing="0.5">CONF.</text>
    <text x="88" y="351" font-family="'Syne', sans-serif" font-size="20" font-weight="800" fill="#22c55e" text-anchor="middle">98%</text>

    <rect x="140" y="306" width="80" height="56" rx="10" fill="#111111" stroke="#ffffff" stroke-opacity="0.07" stroke-width="1"/>
    <text x="180" y="326" font-family="'Syne', sans-serif" font-size="11" font-weight="400" fill="#f0efe8" fill-opacity="0.4" text-anchor="middle" letter-spacing="0.5">RANGE</text>
    <text x="180" y="351" font-family="'Syne', sans-serif" font-size="20" font-weight="800" fill="#f0efe8" text-anchor="middle">246mi</text>

    <rect x="232" y="306" width="80" height="56" rx="10" fill="#111111" stroke="#ffffff" stroke-opacity="0.07" stroke-width="1"/>
    <text x="272" y="326" font-family="'Syne', sans-serif" font-size="11" font-weight="400" fill="#f0efe8" fill-opacity="0.4" text-anchor="middle" letter-spacing="0.5">STOPS</text>
    <text x="272" y="351" font-family="'Syne', sans-serif" font-size="20" font-weight="800" fill="#f0efe8" text-anchor="middle">4</text>

    <rect x="48" y="378" width="148" height="30" rx="15" fill="#22c55e"/>
    <text x="122" y="397" font-family="'Syne', sans-serif" font-size="11" font-weight="700" fill="#000000" text-anchor="middle" letter-spacing="0.5">VIEW CASE STUDY</text>

    <ellipse cx="484" cy="393" rx="80" ry="16" fill="#22c55e" fill-opacity="0.07"/>
    <rect x="390" y="28" width="188" height="364" rx="28" fill="#0d0d0d" stroke="#ffffff" stroke-opacity="0.14" stroke-width="1.5"/>
    <rect x="388" y="100" width="3" height="28" rx="1.5" fill="#ffffff" fill-opacity="0.1"/>
    <rect x="388" y="138" width="3" height="28" rx="1.5" fill="#ffffff" fill-opacity="0.1"/>
    <rect x="579" y="120" width="3" height="44" rx="1.5" fill="#ffffff" fill-opacity="0.1"/>

    <g clip-path="url(#phone-clip)">
      <rect x="390" y="28" width="188" height="364" fill="url(#screen-bg)"/>
      <rect x="455" y="42" width="58" height="18" rx="9" fill="#000000"/>
      <text x="406" y="58" font-family="'DM Sans', sans-serif" font-size="9" font-weight="700" fill="#f0efe8">9:41</text>
      <rect x="543" y="50" width="18" height="8" rx="2" fill="none" stroke="#f0efe8" stroke-opacity="0.5" stroke-width="1"/>
      <rect x="544" y="51" width="11" height="6" rx="1" fill="#22c55e"/>
      <rect x="561" y="52" width="2" height="4" rx="1" fill="#f0efe8" fill-opacity="0.4"/>
      <text x="406" y="82" font-family="'DM Sans', sans-serif" font-size="9" fill="#f0efe8" fill-opacity="0.45">Good morning, Arjun</text>
      <rect x="406" y="90" width="156" height="78" rx="14" fill="#22c55e" fill-opacity="0.12" stroke="#22c55e" stroke-opacity="0.28" stroke-width="1"/>
      <rect x="406" y="90" width="156" height="78" rx="14" fill="url(#green-fade)"/>
      <text x="416" y="108" font-family="'DM Sans', sans-serif" font-size="8" fill="#22c55e" fill-opacity="0.7" letter-spacing="0.8">BATTERY</text>
      <text x="416" y="130" font-family="'Syne', sans-serif" font-size="28" font-weight="800" fill="#22c55e" letter-spacing="-1">76%</text>
      <text x="516" y="108" font-family="'DM Sans', sans-serif" font-size="8" fill="#f0efe8" fill-opacity="0.4" text-anchor="middle" letter-spacing="0.6">SAFE RANGE</text>
      <text x="516" y="126" font-family="'Syne', sans-serif" font-size="16" font-weight="800" fill="#f0efe8" text-anchor="middle">246</text>
      <text x="516" y="138" font-family="'DM Sans', sans-serif" font-size="8" fill="#f0efe8" fill-opacity="0.5" text-anchor="middle">miles</text>
      <rect x="416" y="156" width="146" height="4" rx="2" fill="#ffffff" fill-opacity="0.07"/>
      <rect x="416" y="156" width="111" height="4" rx="2" fill="url(#bar-green)"/>
      <rect x="406" y="178" width="72" height="58" rx="12" fill="#111111" stroke="#ffffff" stroke-opacity="0.08" stroke-width="1"/>
      <text x="442" y="196" font-family="'DM Sans', sans-serif" font-size="8" fill="#22c55e" fill-opacity="0.7" text-anchor="middle" letter-spacing="0.6">CONF.</text>
      <text x="442" y="218" font-family="'Syne', sans-serif" font-size="18" font-weight="800" fill="#22c55e" text-anchor="middle">98%</text>
      <text x="442" y="230" font-family="'DM Sans', sans-serif" font-size="7" fill="#f0efe8" fill-opacity="0.35" text-anchor="middle">HIGH</text>
      <rect x="486" y="178" width="76" height="58" rx="12" fill="#111111" stroke="#ffffff" stroke-opacity="0.08" stroke-width="1"/>
      <text x="524" y="196" font-family="'DM Sans', sans-serif" font-size="8" fill="#f0efe8" fill-opacity="0.4" text-anchor="middle" letter-spacing="0.6">NEARBY</text>
      <text x="524" y="218" font-family="'Syne', sans-serif" font-size="18" font-weight="800" fill="#f0efe8" text-anchor="middle">3</text>
      <text x="524" y="230" font-family="'DM Sans', sans-serif" font-size="7" fill="#f0efe8" fill-opacity="0.35" text-anchor="middle">CHARGERS</text>
      <rect x="406" y="246" width="156" height="52" rx="12" fill="#111111" stroke="#ffffff" stroke-opacity="0.08" stroke-width="1"/>
      <text x="416" y="262" font-family="'DM Sans', sans-serif" font-size="8" fill="#f0efe8" fill-opacity="0.4" letter-spacing="0.6">SAVED TRIP</text>
      <text x="416" y="278" font-family="'Syne', sans-serif" font-size="12" font-weight="700" fill="#f0efe8">San Francisco</text>
      <text x="416" y="291" font-family="'DM Sans', sans-serif" font-size="9" fill="#f0efe8" fill-opacity="0.4">842 mi · 4 stops · 12h 45m</text>
      <text x="549" y="278" font-family="'DM Sans', sans-serif" font-size="12" fill="#22c55e">→</text>
      <rect x="406" y="308" width="156" height="34" rx="12" fill="#22c55e"/>
      <text x="484" y="329" font-family="'Syne', sans-serif" font-size="12" font-weight="800" fill="#000000" text-anchor="middle" letter-spacing="0.3">Start Trip  →</text>
      <rect x="390" y="354" width="188" height="38" fill="#080808"/>
      <line x1="390" y1="354" x2="578" y2="354" stroke="#ffffff" stroke-opacity="0.08" stroke-width="0.5"/>
      <circle cx="421" cy="373" r="3" fill="#22c55e"/>
      <circle cx="460" cy="373" r="3" fill="#ffffff" fill-opacity="0.2"/>
      <circle cx="499" cy="373" r="3" fill="#ffffff" fill-opacity="0.2"/>
      <circle cx="538" cy="373" r="3" fill="#ffffff" fill-opacity="0.2"/>
    </g>

    <rect x="390" y="28" width="188" height="364" rx="28" fill="none" stroke="#ffffff" stroke-opacity="0.14" stroke-width="1.5"/>
  </g>
</svg>
